<?xml version="1.0" encoding="UTF-8"?>
<svg width="32px" height="32px" viewBox="0 0 32 32" version="1.1" xmlns="http://www.w3.org/2000/svg" xmlns:xlink="http://www.w3.org/1999/xlink">
    <!-- Generator: Sketch 63.1 (92452) - https://sketch.com -->
    <title>ARTIS_ATS20</title>
    <desc>Created with Sketch.</desc>
    <g id="Minerva" stroke="none" stroke-width="1" fill="none" fill-rule="evenodd">
        <g id="ARTIS_ATS20">
            <circle id="Oval" fill="#129C6B" fill-rule="nonzero" cx="16" cy="16" r="16"></circle>
            <g id="Group-3-Copy" transform="translate(4.000000, 5.200000)" fill="#FFFFFF">
                <g id="ARTIS_sigma1-Copy-2">
                    <path d="M23.8707692,9.36205714 L23.8707692,9.36205714 C23.8516512,9.28752181 23.8204677,9.21663736 23.7784615,9.15222857 L23.7784615,9.15222857 L16.9538462,0.246857143 C16.9538462,0.246857143 16.9538462,0.246857143 16.9538462,0.246857143 L16.9538462,0.246857143 C16.9560066,0.236685526 16.9560066,0.226171617 16.9538462,0.216 C16.9018143,0.16056851 16.8389752,0.116455516 16.7692308,0.0864 L16.7692308,0.0864 C16.6823182,0.0270818685 16.5789294,-0.003159379 16.4738462,2.39825521e-16 L16.3876923,2.39825521e-16 L5.12,1.11702857 L5.12,1.11702857 C5.03554596,1.12780874 4.95401291,1.15506408 4.88,1.19725714 L4.88,1.19725714 L4.78769231,1.23428571 L4.78769231,1.23428571 C4.72280583,1.2906658 4.67040087,1.36003799 4.63384615,1.43794286 L4.63384615,1.43794286 L4.63384615,1.43794286 L0.0553846154,11.7257143 L0.0553846154,11.7257143 C0.058672065,11.7357358 0.058672065,11.7465499 0.0553846154,11.7565714 C0.0580529696,11.7687692 0.0580529696,11.7814022 0.0553846154,11.7936 L0.0553846154,11.7936 C0.0434412819,11.8630301 0.0434412819,11.9339985 0.0553846154,12.0034286 L0,12.0034286 C0.00739590145,12.0813054 0.0304216211,12.1568776 0.0676923077,12.2256 L0.0676923077,12.2626286 L0.0676923077,12.2626286 L0.0676923077,12.2996571 L6.97846154,21.2235429 C7.02688705,21.2882417 7.08752416,21.3427614 7.15692308,21.384 L7.15692308,21.384 L7.15692308,21.384 L7.15692308,21.384 C7.23756821,21.4231997 7.32577762,21.444262 7.41538462,21.4457143 L7.47692308,21.4457143 L18.7569231,20.3657143 L18.8492308,20.3657143 L18.8492308,20.3657143 C18.9113664,20.3453413 18.9711848,20.3184495 19.0276923,20.2854857 L19.0276923,20.2854857 L19.0276923,20.2854857 L19.0276923,20.2854857 C19.0827812,20.2443791 19.1306215,20.1943162 19.1692308,20.1373714 L19.1692308,20.088 L19.1692308,20.088 L19.1692308,20.088 L23.8338462,9.75085714 L23.8338462,9.75085714 C23.8769861,9.6627953 23.8960957,9.56484479 23.8892308,9.46697143 L23.8892308,9.46697143 C23.8868683,9.43143457 23.8806785,9.39625841 23.8707692,9.36205714 Z M19.1815385,8.88068571 L17.7846154,3.36342857 L22.0246154,8.88068571 L19.1815385,8.88068571 Z M18.0861538,18.9154286 L9.95076923,16.5517714 L1.65538462,11.88 L7.80923077,6.17142857 L16.0615385,1.54902857 L18.0861538,9.57188571 L18.0861538,18.9154286 Z M13.5876923,1.51817143 L7.69230769,4.83222857 L6.19692308,2.25257143 L13.5876923,1.51817143 Z M5.25538462,3.08571429 L6.68923077,5.55428571 L6.64,5.59131429 L2.39384615,9.52251429 L5.25538462,3.08571429 Z M7.38461538,19.7485714 L2.96615385,14.0338286 L8.85538462,17.3478857 L7.38461538,19.7485714 Z M9.97538462,17.8354286 L15.4461538,19.4276571 L8.61538462,20.1126857 L9.97538462,17.8354286 Z M19.3169231,16.848 L19.3169231,10.1149714 L22.3261538,10.1149714 L19.3169231,16.848 Z" id="Shape"></path>
                </g>
                <g id="Group-2" transform="translate(6.600000, 7.200000)" fill-rule="nonzero">
                    <path d="M0.194929412,5.49811765 C1.22836987,4.85453796 1.97559181,4.28367896 2.43661765,3.78552353 C2.89764348,3.2873681 3.12815294,2.81861396 3.12815294,2.37924706 C3.12815294,2.13171641 3.05698895,1.93214782 2.91465882,1.78053529 C2.7723287,1.62892277 2.56811898,1.55311765 2.30202353,1.55311765 C2.01117502,1.55311765 1.78375964,1.65986364 1.61977059,1.87335882 C1.45578153,2.08685401 1.37069415,2.39780972 1.36450588,2.80623529 L0,2.38852941 C0.0123765325,1.72638492 0.239791905,1.21276653 0.682252941,0.847658824 C1.12471398,0.482551116 1.69866706,0.3 2.40412941,0.3 C2.91775551,0.3 3.34783356,0.394369645 3.69437647,0.583111765 C4.04091938,0.771853885 4.29772858,1.01473969 4.46481176,1.31177647 C4.63189495,1.60881325 4.71543529,1.92750418 4.71543529,2.26785882 C4.71543529,2.84336758 4.50039627,3.37245641 4.07031176,3.85514118 C3.64022726,4.33782594 2.98892201,4.82978573 2.11637647,5.33103529 L2.11637647,5.34031765 C2.52480204,5.31556458 2.93631557,5.30318824 3.35092941,5.30318824 L4.78969412,5.30318824 L4.78969412,6.51917647 L0.194929412,6.51917647 L0.194929412,5.49811765 Z M8.15918824,6.612 C6.46360329,6.612 5.61582353,5.56001052 5.61582353,3.456 C5.61582353,1.35198948 6.46360329,0.3 8.15918824,0.3 C9.85477318,0.3 10.7025529,1.35198948 10.7025529,3.456 C10.7025529,5.56001052 9.85477318,6.612 8.15918824,6.612 Z M8.15918824,5.36816471 C8.49954288,5.36816471 8.74552277,5.21964854 8.89713529,4.92261176 C9.04874782,4.62557499 9.12455294,4.13670929 9.12455294,3.456 C9.12455294,2.77529071 9.04874782,2.28642501 8.89713529,1.98938824 C8.74552277,1.69235146 8.49954288,1.54383529 8.15918824,1.54383529 C7.81883359,1.54383529 7.5728537,1.69235146 7.42124118,1.98938824 C7.26962865,2.28642501 7.19382353,2.77529071 7.19382353,3.456 C7.19382353,4.13670929 7.26962865,4.62557499 7.42124118,4.92261176 C7.5728537,5.21964854 7.81883359,5.36816471 8.15918824,5.36816471 Z" id="20"></path>
                </g>
            </g>
        </g>
    </g>
</svg>