<svg xmlns="http://www.w3.org/2000/svg" xmlns:xlink="http://www.w3.org/1999/xlink" width="32" height="32" viewBox="0 0 32 32">
    <defs>
        <path id="qv93d0ouza" d="M15.091 14.658c.187 0 .339-.056.455-.168.117-.112.178-.25.182-.413.005-.163-.063-.329-.203-.497l-2.22-2.657 2.108-2.761c.105-.134.169-.272.193-.412l.01-.106c.005-.177-.044-.329-.147-.455-.102-.126-.256-.189-.462-.189-.102 0-.196.016-.28.049-.084.033-.163.096-.238.189L12.43 9.975l-2.295-2.737c-.109-.132-.25-.21-.424-.231L9.603 7c-.205 0-.36.06-.462.182-.102.121-.15.268-.14.441.01.173.075.334.196.483l2.307 2.731-2.167 2.715c-.104.134-.167.269-.188.403l-.008.101c0 .168.054.31.161.427.107.117.255.175.441.175.196 0 .364-.075.504-.224l2.12-2.665 2.22 2.665c.056.07.115.122.176.155l.062.027c.084.028.173.042.266.042z"/>
    </defs>
    <g fill="none" fill-rule="evenodd">
        <g fill-rule="nonzero">
            <g>
                <circle cx="16" cy="16" r="16" fill="#129C6B"/>
                <g fill="#FFF">
                    <path d="M23.87 9.362c-.018-.074-.05-.145-.092-.21L16.954.247c.002-.01.002-.02 0-.031-.052-.055-.115-.1-.185-.13-.087-.059-.19-.09-.295-.086h-.086L5.12 1.117c-.084.01-.166.038-.24.08l-.092.037c-.065.057-.118.126-.154.204L.055 11.726c.004.01.004.02 0 .03.003.013.003.025 0 .038-.012.069-.012.14 0 .21H0c.007.077.03.153.068.222v.074l6.91 8.924c.049.064.11.119.179.16.08.04.169.06.258.062h.062l11.28-1.08h.092c.062-.02.122-.048.179-.08.055-.042.103-.092.141-.149v-.049l4.665-10.337c.043-.088.062-.186.055-.284-.002-.036-.008-.07-.018-.105zm-4.688-.481l-1.397-5.518 4.24 5.518h-2.843zm-1.096 10.034l-8.135-2.363-8.296-4.672L7.81 6.171l8.253-4.622 2.024 8.023v9.343zM13.588 1.518L7.692 4.832l-1.495-2.58 7.39-.734zM5.255 3.086L6.69 5.554l-.049.037-4.246 3.932 2.861-6.437zm2.13 16.663l-4.419-5.715 5.89 3.314-1.471 2.4zm2.59-1.914l5.471 1.593-6.83.685 1.36-2.278zm9.342-.987v-6.733h3.01l-3.01 6.733z" transform="translate(4 5.2)"/>
                    <g transform="translate(4 5.2)">
                        <use xlink:href="#qv93d0ouza"/>
                        <use xlink:href="#qv93d0ouza"/>
                    </g>
                </g>
            </g>
        </g>
    </g>
</svg>
