<?xml version="1.0" encoding="UTF-8"?>
<svg width="32px" height="32px" viewBox="0 0 32 32" version="1.1" xmlns="http://www.w3.org/2000/svg" xmlns:xlink="http://www.w3.org/1999/xlink">
    <!-- Generator: Sketch 63.1 (92452) - https://sketch.com -->
    <title>ARTIS_Sigma_v1</title>
    <desc>Created with Sketch.</desc>
    <g id="Minerva" stroke="none" stroke-width="1" fill="none" fill-rule="evenodd">
        <g id="ARTIS_Sigma_v1" fill-rule="nonzero">
            <circle id="Oval" fill="#129C6B" cx="16" cy="16" r="16"></circle>
            <g id="safari-pinned-tab" transform="translate(4.000000, 4.000000)" fill="#FFFFFF">
                <g id="Group" transform="translate(12.014528, 11.985545) scale(-1, 1) rotate(-180.000000) translate(-12.014528, -11.985545) translate(0.014528, 0.985545)">
                    <path d="M16.0794189,21.9450723 C15.8789346,21.8930355 15.6842615,21.7658344 15.5709443,21.612615 L15.4663438,21.4738502 L15.1292978,21.4420499 C14.9404358,21.4218134 13.8886199,21.3177398 12.7845036,21.2049934 C11.683293,21.095138 9.87893462,20.9130092 8.7748184,20.8002628 C7.67360775,20.6904074 6.60435835,20.5805519 6.39806295,20.5603154 L6.02905569,20.5227332 L5.96513317,20.5892247 C5.86924939,20.6904074 5.62808717,20.7973719 5.44794189,20.8176084 C5.01791768,20.8667543 4.56755448,20.5632063 4.45714286,20.1498029 C4.40774818,19.973456 4.43680387,19.6525624 4.5094431,19.5022339 L4.57336562,19.3721419 L2.67602906,15.0212878 C1.63292978,12.6275953 0.76125908,10.6617608 0.738014528,10.6501971 C0.714769976,10.6386334 0.627602906,10.6010512 0.543341404,10.5634691 C0.360290557,10.4854139 0.151089588,10.2743758 0.0668280872,10.0806833 C-0.0261501211,9.87253614 -0.0203389831,9.55453351 0.0813559322,9.34638633 C0.229539952,9.04283837 0.508474576,8.84336399 0.836803874,8.8086728 L1.01694915,8.78843627 L3.85859564,5.04467806 C6.13075061,2.05545335 6.69733656,1.29224704 6.67990315,1.24310118 C6.67118644,1.21130092 6.6566586,1.09277267 6.64794189,0.977135348 C6.6188862,0.58107753 6.79903148,0.268856767 7.1535109,0.0954007884 C7.3220339,0.0144546649 7.37723971,0 7.56900726,0 C7.74915254,0 7.81598063,0.0144546649 7.9496368,0.0809461235 C8.10072639,0.153219448 8.26634383,0.303547963 8.38256659,0.46544021 C8.42324455,0.526149803 8.56561743,0.543495401 11.346247,0.821024967 C12.9530266,0.982917214 15.0828087,1.19973719 16.0823245,1.29802891 L17.8983051,1.48304862 L18.0116223,1.38186597 C18.1946731,1.21419185 18.357385,1.15637319 18.6246973,1.15926413 C18.8164649,1.15926413 18.8861985,1.17371879 19.0227603,1.23731932 C19.4992736,1.46859396 19.68523,2.03232589 19.4382567,2.5064389 L19.368523,2.64520368 L21.262954,6.98160315 C22.3060533,9.36373193 23.1661017,11.3180026 23.177724,11.3180026 C23.1893462,11.3180026 23.2736077,11.346912 23.366586,11.3816032 C23.5815981,11.4596583 23.811138,11.6735874 23.9012107,11.8759527 C23.9970944,12.0956636 23.9941889,12.4021025 23.8924939,12.6247043 C23.7472155,12.9369251 23.4653753,13.1335085 23.1225182,13.1624179 L22.9307506,13.1768725 L20.0716707,16.9784494 L17.2125908,20.7800263 L17.2300242,20.9563732 C17.2765133,21.4102497 16.9830508,21.8236531 16.5268765,21.9421813 C16.3322034,21.9942181 16.2595642,21.9942181 16.0794189,21.9450723 Z M14.4813559,20.5285151 C14.4755448,20.5227332 13.6794189,20.0659658 12.7118644,19.5137976 C11.7443099,18.9616294 10.9191283,18.4904074 10.8784504,18.4672799 C10.8087167,18.4268068 10.6837772,18.4586071 8.57142857,19.068594 L6.337046,19.7161629 L6.51138015,19.7363995 C6.60435835,19.7479632 7.46731235,19.8375821 8.42615012,19.9329829 C11.8663438,20.2798949 13.3162228,20.4244415 13.8159806,20.4793693 C14.3476998,20.534297 14.5016949,20.5458607 14.4813559,20.5285151 Z M15.7917676,20.2596583 C15.7917676,20.2452037 15.4663438,19.6670171 15.0711864,18.9674113 L14.3535109,17.7011827 L14.2169492,17.6954008 C14.1094431,17.6925099 14.0600484,17.6722733 13.9932203,17.6086728 L13.9060533,17.5248357 L12.9181598,17.8110381 C12.3748184,17.9671485 11.9389831,18.1059133 11.9506053,18.1145861 C12.0029056,18.1637319 15.7220339,20.2798949 15.7539952,20.2798949 C15.7743341,20.2798949 15.7917676,20.2712221 15.7917676,20.2596583 Z M16.0910412,20.1498029 L16.2363196,20.1180026 L16.7854722,17.9093298 C17.0847458,16.695138 17.3288136,15.6919842 17.3259337,15.6804205 C17.3200969,15.6688568 16.6953995,16.0157687 15.937046,16.4522996 L14.5569007,17.2501971 L14.5569007,17.3745072 C14.5569007,17.4641261 14.5394673,17.5190539 14.4929782,17.5681997 L14.4290557,17.6346912 L15.1612591,18.9269382 C15.5680387,19.6467806 15.9050847,20.2105125 15.9196126,20.1989488 C15.937046,20.190276 16.0125908,20.1671485 16.0910412,20.1498029 Z M8.12397094,19.0975033 C9.10605327,18.8141919 10.0794189,18.5308804 10.2915254,18.4701708 C10.503632,18.4094612 10.6692494,18.3545335 10.6605327,18.3458607 C10.651816,18.3371879 10.0765133,18.0047306 9.37917676,17.6057819 L8.11234867,16.8830486 L7.96707022,16.952431 C7.88280872,16.9929041 7.75205811,17.0304862 7.6590799,17.0362681 L7.49636804,17.0478318 L6.82227603,18.2302234 L6.14818402,19.412615 L6.19757869,19.5282523 C6.23244552,19.6063075 6.26150121,19.6381078 6.29346247,19.629435 C6.31670702,19.6207622 7.14188862,19.3808147 8.12397094,19.0975033 Z M19.725908,16.0533509 C21.0130751,14.3390276 22.0677966,12.9311432 22.0677966,12.9224704 C22.0677966,12.9137976 22.0184019,12.939816 21.9602906,12.9773982 C21.8992736,13.0149803 21.0653753,13.4977661 20.1065375,14.0499343 C19.1476998,14.6021025 18.3602906,15.055979 18.357385,15.0588699 C18.3544794,15.0617608 18.1162228,16.004205 17.831477,17.1547963 C17.5438257,18.3024967 17.325908,19.2275953 17.346247,19.2044678 C17.366586,19.1842313 18.4387409,17.7647832 19.725908,16.0533509 Z M5.34915254,18.0191853 C5.34043584,17.4901445 5.32300242,16.4898817 5.31428571,15.7989488 L5.2968523,14.5413929 L5.01791768,14.2667543 C4.5559322,13.8099869 2.062954,11.4683311 2.05423729,11.4769799 C2.04552058,11.4856767 3.29491525,14.3592641 5.23874092,18.8141919 C5.27651332,18.9038108 5.32300242,18.978975 5.34043584,18.978975 C5.35786925,18.978975 5.36368039,18.6551905 5.34915254,18.0191853 Z M6.13365617,17.7590013 L6.77578692,16.6286465 L6.7031477,16.4696452 C6.63922518,16.3279895 6.63341404,16.2846255 6.64503632,16.0591327 L6.65956416,15.8047306 L6.04939467,15.229435 C5.71525424,14.9143233 5.42760291,14.6512484 5.41016949,14.6454665 C5.39273608,14.6396846 5.38983051,14.7900131 5.40145278,15.0791064 C5.41016949,15.3248357 5.42760291,16.2904074 5.43631961,17.2241787 C5.44794189,18.1579501 5.46246973,18.9153745 5.47409201,18.9067017 C5.48280872,18.895138 5.77917676,18.3805519 6.13365617,17.7590013 Z M12.842615,17.7329829 C13.4033898,17.5710907 13.8682809,17.4323259 13.8769976,17.4207622 C13.8886199,17.4120894 13.9031477,17.3542707 13.9118644,17.296452 L13.9292978,17.1865966 L12.7380145,16.17477 C12.0842615,15.6197109 11.535109,15.1629435 11.51477,15.1629435 C11.4305085,15.1658344 8.61791768,16.1632063 8.62371982,16.1892247 C8.62663438,16.218134 11.7443099,18.0191853 11.7966102,18.0249671 C11.8140436,18.0249671 12.2847458,17.8948752 12.842615,17.7329829 Z M15.9486683,16.3337714 L17.3782082,15.5098555 L17.6949153,14.2378449 C17.8953995,13.4341656 18.0029056,12.9571616 17.9854722,12.939816 C17.9680387,12.9253614 17.3607748,13.1219448 16.4368039,13.4428384 C15.6,13.7348226 14.9113801,13.977661 14.905569,13.9834428 C14.8997579,13.9863338 14.7719128,14.6801577 14.6179177,15.5214192 L14.3418886,17.0478318 L14.4058111,17.1027595 C14.440678,17.1316689 14.4813559,17.1547963 14.4958838,17.1576873 C14.5075061,17.1576873 15.1612591,16.7876478 15.9486683,16.3337714 Z M14.2024213,17.0420499 C14.231477,17.0420499 14.3099274,16.6749014 14.5133172,15.5532194 C14.6615012,14.7321945 14.7748184,14.0557162 14.7661017,14.0470434 C14.7486683,14.0296978 11.7268765,15.0675427 11.6861985,15.1051248 C11.6716707,15.1166886 12.188862,15.5763469 12.8338983,16.1256242 C13.9990315,17.1201051 14.0048426,17.1229961 14.083293,17.082523 C14.1268765,17.0593955 14.1791768,17.0420499 14.2024213,17.0420499 Z M9.46634383,14.9865966 C10.1549637,14.7466491 10.7360775,14.5413929 10.7535109,14.5327201 C10.7709443,14.5211564 10.3380145,14.1308804 9.7220339,13.6076216 C8.83874092,12.853088 8.65569007,12.7114323 8.63825666,12.7547963 C8.60048426,12.8444152 8.12397094,15.3739816 8.13849879,15.4 C8.1472155,15.4115637 8.16755448,15.4231275 8.18208232,15.4231275 C8.19661017,15.4231275 8.7748184,15.226544 9.46634383,14.9865966 Z M7.59806295,13.7030223 C7.75786925,12.8588699 7.89733656,12.1505913 7.90605327,12.121682 C7.91476998,12.0869908 7.59806295,11.8007884 6.72639225,11.0578187 L5.53220339,10.0431012 L5.43341404,10.0749014 L5.3346247,10.1067017 L5.35205811,11.4712221 C5.36077482,12.2228647 5.37530266,12.9802891 5.38692494,13.156636 L5.40435835,13.4804205 L6.34285714,14.3679369 C6.86004843,14.8565046 7.28716707,15.2496715 7.29297821,15.2438896 C7.29878935,15.2409987 7.43535109,14.5442838 7.59806295,13.7030223 Z M20.2082324,13.8764783 C21.1118644,13.3561104 21.9399516,12.8791064 22.0503632,12.8155059 C22.1956416,12.7287779 22.2392252,12.6911958 22.2101695,12.6738502 C22.1869249,12.6593955 21.559322,12.6478318 20.8125908,12.6478318 L19.4556901,12.6478318 L19.4121065,12.7287779 C19.3452785,12.855979 19.159322,13.0149803 18.9820823,13.0959264 L18.8193705,13.1710907 L18.6101695,14.0094612 C18.4968523,14.4691196 18.3951574,14.8680683 18.3864407,14.8940867 C18.3690073,14.9345598 18.3835351,14.9316689 18.4677966,14.882523 C18.5230024,14.8478318 19.3046005,14.3968463 20.2082324,13.8764783 Z M12.9414044,13.7781866 C14.0309927,13.3994744 14.9346247,13.0785808 14.946247,13.0641261 C14.9840194,13.0236531 15.5041162,10.095138 15.4779661,10.0777924 C15.4634383,10.0691196 14.7602906,9.45913272 13.9089588,8.72483574 C13.0605327,7.98764783 12.3544794,7.38633377 12.3399516,7.38633377 C12.3138015,7.38633377 9.48087167,8.36346912 9.47215496,8.37503285 C9.46924939,8.38081472 9.28619855,9.3261498 9.0653753,10.4738502 L8.66440678,12.5668857 L8.73414044,12.6333771 C8.92590799,12.8183968 10.8929782,14.4691196 10.9220339,14.4691196 C10.9394673,14.4691196 11.8489104,14.1597898 12.9414044,13.7781866 Z M5.2590799,11.731406 C5.24745763,10.78318 5.22711864,10.1153745 5.2125908,10.1095926 C5.14866828,10.0835742 5.0062954,9.94480946 4.98014528,9.88120894 L4.95399516,9.81471748 L3.40823245,9.81471748 L1.85956416,9.81471748 L1.82760291,9.94480946 L1.79564165,10.0777924 L3.52736077,11.7082786 C4.48038741,12.6073587 5.26489104,13.3416557 5.27070218,13.3416557 C5.27651332,13.3416557 5.27070218,12.6160315 5.2590799,11.731406 Z M16.401937,12.5755585 C17.1079903,12.3298292 17.6920097,12.1274639 17.6978208,12.1274639 C17.703632,12.1274639 17.7094431,12.0985545 17.7065375,12.0638633 C17.7065375,12.0147175 17.4392252,11.7689882 16.6547215,11.0925099 C15.7859564,10.3466491 15.6,10.1963206 15.5825666,10.2396846 C15.5709443,10.268594 15.4576271,10.8843627 15.3268765,11.6070959 C15.1990315,12.3298292 15.0857143,12.9455979 15.0769976,12.9745072 C15.0682809,13.0005256 15.074092,13.0236531 15.0886199,13.0236531 C15.1031477,13.0236531 15.6958838,12.8212878 16.401937,12.5755585 Z M8.25181598,10.309067 C8.42033898,9.43022339 8.55399516,8.70459921 8.55108959,8.69878914 C8.54527845,8.69592641 7.88861985,8.91563732 7.08958838,9.19316689 L5.63680387,9.69329829 L5.61646489,9.82917214 C5.59903148,9.95637319 5.60193705,9.97082786 5.68910412,10.0459921 C6.37772397,10.6444152 7.93220339,11.951117 7.93801453,11.9337714 C7.9409201,11.9222076 8.08329298,11.1908016 8.25181598,10.309067 Z M22.2624697,11.7400788 L22.3234867,11.6446781 L20.6934625,10.1211564 L19.0605327,8.60052562 L19.051816,10.00841 C19.0460048,11.2919842 19.0489104,11.4191853 19.0924939,11.4423127 C19.1854722,11.4943495 19.368523,11.6764783 19.4121065,11.7574244 L19.4556901,11.8383706 L20.8271186,11.8383706 L22.1985472,11.8383706 L22.2624697,11.7400788 Z M22.274092,11.3700394 C22.2450363,11.300657 21.5157385,9.6325887 20.6527845,7.6609724 C19.7898305,5.68935611 19.0750605,4.05597898 19.0663438,4.03285151 C19.0576271,4.00972405 19.0489104,4.99264126 19.0489104,6.21839685 L19.0460048,8.45019711 L20.6382567,9.9303548 C21.5128329,10.7455979 22.2392252,11.430749 22.2566586,11.4509855 C22.31477,11.5319317 22.3263923,11.4885677 22.274092,11.3700394 Z M17.9941889,7.60604468 C17.8779661,7.49618922 17.5002421,7.1434954 17.1544794,6.81971091 L16.5297821,6.23574244 L16.4077482,6.26754271 C16.3409201,6.2848883 16.2857143,6.30801577 16.2857143,6.31668857 C16.2857143,6.32536137 16.166586,6.98160315 16.0242131,7.77660972 C15.8150121,8.93009198 15.768523,9.22496715 15.7975787,9.25387648 C15.8179177,9.27411301 16.3641646,9.74533509 17.0121065,10.3061761 L18.188862,11.3208936 L18.1975787,9.56320631 L18.2062954,7.80551905 L17.9941889,7.60604468 Z M4.98014528,9.66438896 C5.01501211,9.57477004 5.12251816,9.48226018 5.23002421,9.44756899 C5.31428571,9.42155059 5.31428571,9.42155059 5.56997579,8.40105125 C5.71234867,7.83731932 5.82276029,7.37187911 5.81404358,7.36609724 C5.80532688,7.35742444 2.27215496,9.3695138 1.87699758,9.60946124 C1.85375303,9.6239159 1.84503632,9.65571616 1.85375303,9.68173456 C1.87118644,9.72220762 2.01937046,9.72798949 3.41404358,9.72798949 L4.95399516,9.72798949 L4.98014528,9.66438896 Z M7.06924939,9.09487516 C7.88861985,8.81156373 8.56561743,8.57450723 8.57433414,8.56583443 C8.59176755,8.54848883 9.19322034,5.44073587 9.18159806,5.42628121 C9.17869249,5.42049934 8.44939467,5.83390276 7.56610169,6.33981603 L5.95932203,7.26202365 L5.68619855,8.35190539 L5.41307506,9.43889619 L5.49443099,9.52273325 C5.5409201,9.56898817 5.57869249,9.60659711 5.57869249,9.60659711 C5.57869249,9.60946124 6.24987893,9.3781866 7.06924939,9.09487516 Z M15.6900726,9.05729304 C15.6987893,9.01971091 15.809201,8.40683311 15.937046,7.68988173 C16.064891,6.97582129 16.1753027,6.3629435 16.1811138,6.33114323 C16.1898305,6.2935611 16.1607748,6.24730618 16.0968523,6.19526938 L16.0009685,6.11432326 L14.6324455,6.58554534 L13.2610169,7.05965834 L14.4464891,8.08883049 C15.0973366,8.65256242 15.640678,9.11800263 15.6523002,9.11800263 C15.6639225,9.12089356 15.6813559,9.09198423 15.6900726,9.05729304 Z M4.62566586,7.06833114 L6.11331719,6.21550591 L6.62179177,4.17739816 C6.90072639,3.0586071 7.12445521,2.13639947 7.12157762,2.13061761 C7.1157385,2.12772668 7.08668281,2.15952694 7.05762712,2.20578187 C7.02566586,2.25203679 5.97384988,3.64257556 4.7157385,5.29908016 C3.45472155,6.95269382 2.42615012,8.31432326 2.42615012,8.32010512 C2.42615012,8.32877792 2.58595642,8.24204993 2.78353511,8.12930355 C2.97820823,8.01366623 3.80920097,7.53666229 4.62566586,7.06833114 Z M10.8813559,7.77660972 C11.6077482,7.52798949 12.2121065,7.31406045 12.2237288,7.30249671 C12.2440678,7.28515112 10.2769976,5.56215506 10.2101695,5.5390276 C10.1520581,5.521682 10.0096852,5.60262812 9.99515738,5.66333771 C9.98644068,5.69513798 9.87602906,6.27043364 9.74818402,6.93823916 C9.62033898,7.60604468 9.50992736,8.17555848 9.50411622,8.20446781 C9.49539952,8.23626807 9.50411622,8.25361367 9.52445521,8.24494087 C9.54479419,8.239159 10.1549637,8.02812089 10.8813559,7.77660972 Z M18.2033898,5.27017083 C18.2033898,3.86228647 18.1917676,2.90538765 18.1772397,2.92273325 C18.1627119,2.93718791 17.7966102,3.54717477 17.3607748,4.27858081 C16.9249395,5.00998686 16.5559322,5.62286465 16.5414044,5.64310118 C16.5239709,5.66622865 16.5355932,5.70670171 16.5791768,5.76452037 C16.6343826,5.83679369 16.6401937,5.87437582 16.6256659,6.0131406 L16.6082324,6.17214192 L17.3985472,6.90932983 C17.831477,7.31406045 18.1917676,7.64651774 18.1946731,7.64651774 C18.2004843,7.64651774 18.2033898,6.57687254 18.2033898,5.27017083 Z M14.5830508,6.49592641 L15.9748184,6.0131406 L15.9835351,5.92352168 L15.9951574,5.83101183 L14.5046005,4.94927727 L13.0169492,4.06754271 L11.8692494,4.4086728 C10.8639225,4.7064389 10.7215496,4.75558476 10.7215496,4.80473062 C10.7215496,4.84520368 11.1079903,5.1978975 11.9418886,5.92063075 C12.6130751,6.50170828 13.1680387,6.97874043 13.1767554,6.97874043 C13.1854722,6.98160315 13.8188862,6.76189225 14.5830508,6.49592641 Z M7.60968523,5.35689882 L8.82711864,4.6544021 L8.86779661,4.49540079 C8.89104116,4.4086728 8.9346247,4.29303548 8.96658596,4.24099869 L9.02179177,4.14270696 L8.34769976,3.00078844 L7.67070218,1.85886991 L7.49927361,1.85308804 C7.37433414,1.85019711 7.3220339,1.86176084 7.30460048,1.8935611 C7.29007264,1.91668857 7.04891041,2.86202365 6.76997579,3.98948752 C6.49104116,5.11984231 6.2527845,6.0651774 6.2440678,6.09408673 C6.22372881,6.16057819 6.09878935,6.22706965 7.60968523,5.35689882 Z M16.1346247,5.67779238 C16.1869249,5.63731932 16.2450363,5.62286465 16.3234867,5.62864652 L16.4368039,5.63442838 L17.2619855,4.24967148 C17.7152542,3.48646518 18.0871671,2.85624179 18.0842784,2.84756899 C18.0842784,2.83889619 18.0290557,2.78975033 17.9680387,2.7348226 L17.851816,2.63653088 L15.5157385,3.32746386 C14.2285714,3.70617608 13.1767554,4.02417871 13.1767554,4.03285151 C13.179661,4.05019711 15.998063,5.73272011 16.0329298,5.73561104 C16.0474576,5.73850197 16.0939467,5.71248357 16.1346247,5.67779238 Z M11.2067797,3.73797635 C11.6513317,3.60499343 12.0145278,3.49224704 12.0145278,3.48357424 C12.0145278,3.45466491 8.47554479,1.37319317 8.42905569,1.37319317 C8.40290557,1.37319317 8.38256659,1.3847569 8.38256659,1.39921156 C8.38256659,1.4107753 8.69346247,1.94848883 9.07409201,2.59027595 L9.76271186,3.75821288 L9.89346247,3.77555848 C10.0387409,3.79579501 10.1956416,3.85939553 10.2857143,3.92877792 C10.3176755,3.95190539 10.3554479,3.97503285 10.3699758,3.97503285 C10.3874092,3.97503285 10.7622276,3.86806833 11.2067797,3.73797635 Z M14.3128329,2.81576873 C15.4547215,2.4804205 16.3990315,2.1913272 16.4164649,2.17976347 C16.4309927,2.1653088 16.3990315,2.15374507 16.3438257,2.15374507 C16.2886199,2.15374507 14.5743341,1.98318003 12.5375303,1.77792378 C10.5007264,1.56977661 8.80677966,1.4021025 8.77772397,1.4021025 C8.74576271,1.4021025 9.49830508,1.86465177 10.4484262,2.42838371 C11.3985472,2.99211564 12.188862,3.44888305 12.2062954,3.44021025 C12.2237288,3.43442838 13.1738499,3.15400788 14.3128329,2.81576873 Z" id="Shape"></path>
                </g>
            </g>
        </g>
    </g>
</svg>