<?xml version="1.0" encoding="UTF-8"?>
<svg width="32px" height="32px" viewBox="0 0 32 32" version="1.1" xmlns="http://www.w3.org/2000/svg" xmlns:xlink="http://www.w3.org/1999/xlink">
    <!-- Generator: Sketch 63.1 (92452) - https://sketch.com -->
    <title>ARTIS_Sigma_v2</title>
    <desc>Created with Sketch.</desc>
    <g id="Minerva" stroke="none" stroke-width="1" fill="none" fill-rule="evenodd">
        <g id="ARTIS_Sigma_v2">
            <circle id="Oval" fill="#129C6B" fill-rule="nonzero" cx="16" cy="16" r="16"></circle>
            <g id="Group-7-Copy" transform="translate(4.000000, 5.200000)" fill="#FFFFFF">
                <g id="ARTIS_sigma1">
                    <path d="M23.8707692,9.36205714 L23.8707692,9.36205714 C23.8516512,9.28752181 23.8204677,9.21663736 23.7784615,9.15222857 L23.7784615,9.15222857 L16.9538462,0.246857143 C16.9538462,0.246857143 16.9538462,0.246857143 16.9538462,0.246857143 L16.9538462,0.246857143 C16.9560066,0.236685526 16.9560066,0.226171617 16.9538462,0.216 C16.9018143,0.16056851 16.8389752,0.116455516 16.7692308,0.0864 L16.7692308,0.0864 C16.6823182,0.0270818685 16.5789294,-0.003159379 16.4738462,2.40069466e-16 L16.3876923,2.40069466e-16 L5.12,1.11702857 L5.12,1.11702857 C5.03554596,1.12780874 4.95401291,1.15506408 4.88,1.19725714 L4.88,1.19725714 L4.78769231,1.23428571 L4.78769231,1.23428571 C4.72280583,1.2906658 4.67040087,1.36003799 4.63384615,1.43794286 L4.63384615,1.43794286 L4.63384615,1.43794286 L0.0553846154,11.7257143 L0.0553846154,11.7257143 C0.058672065,11.7357358 0.058672065,11.7465499 0.0553846154,11.7565714 C0.0580529696,11.7687692 0.0580529696,11.7814022 0.0553846154,11.7936 L0.0553846154,11.7936 C0.0434412819,11.8630301 0.0434412819,11.9339985 0.0553846154,12.0034286 L0,12.0034286 C0.00739590145,12.0813054 0.0304216211,12.1568776 0.0676923077,12.2256 L0.0676923077,12.2626286 L0.0676923077,12.2626286 L0.0676923077,12.2996571 L6.97846154,21.2235429 C7.02688705,21.2882417 7.08752416,21.3427614 7.15692308,21.384 L7.15692308,21.384 L7.15692308,21.384 L7.15692308,21.384 C7.23756821,21.4231997 7.32577762,21.444262 7.41538462,21.4457143 L7.47692308,21.4457143 L18.7569231,20.3657143 L18.8492308,20.3657143 L18.8492308,20.3657143 C18.9113664,20.3453413 18.9711848,20.3184495 19.0276923,20.2854857 L19.0276923,20.2854857 L19.0276923,20.2854857 L19.0276923,20.2854857 C19.0827812,20.2443791 19.1306215,20.1943162 19.1692308,20.1373714 L19.1692308,20.088 L19.1692308,20.088 L19.1692308,20.088 L23.8338462,9.75085714 L23.8338462,9.75085714 C23.8769861,9.6627953 23.8960957,9.56484479 23.8892308,9.46697143 L23.8892308,9.46697143 C23.8868683,9.43143457 23.8806785,9.39625841 23.8707692,9.36205714 Z M19.1815385,8.88068571 L17.7846154,3.36342857 L22.0246154,8.88068571 L19.1815385,8.88068571 Z M18.0861538,18.9154286 L9.95076923,16.5517714 L1.65538462,11.88 L7.80923077,6.17142857 L16.0615385,1.54902857 L18.0861538,9.57188571 L18.0861538,18.9154286 Z M13.5876923,1.51817143 L7.69230769,4.83222857 L6.19692308,2.25257143 L13.5876923,1.51817143 Z M5.25538462,3.08571429 L6.68923077,5.55428571 L6.64,5.59131429 L2.39384615,9.52251429 L5.25538462,3.08571429 Z M7.38461538,19.7485714 L2.96615385,14.0338286 L8.85538462,17.3478857 L7.38461538,19.7485714 Z M9.97538462,17.8354286 L15.4461538,19.4276571 L8.61538462,20.1126857 L9.97538462,17.8354286 Z M19.3169231,16.848 L19.3169231,10.1149714 L22.3261538,10.1149714 L19.3169231,16.848 Z" id="Shape"></path>
                    <path d="M15.0030769,7.09714286 C15.0030769,6.75630427 14.7275598,6.47999918 14.3876923,6.47999918 L9.46461538,6.47999918 C9.22568118,6.47961034 9.00811947,6.61795672 8.90657243,6.83485667 C8.80502539,7.05175663 8.83785082,7.30799871 8.99076923,7.49211429 L11.7415385,10.8 L8.99076923,14.1078857 C8.83797318,14.2935186 8.80674271,14.5513038 8.91076923,14.7682286 C9.0125555,14.9825523 9.22790188,15.119328 9.46461538,15.12 L14.3876923,15.12 C14.7275598,15.12 15.0030769,14.8436957 15.0030769,14.5028571 C15.0030769,14.1620186 14.7275598,13.8857143 14.3876923,13.8857143 L10.7815385,13.8857143 L13.0153846,11.1949714 C13.205436,10.9661465 13.205436,10.6338535 13.0153846,10.4050286 L10.7815385,7.71428571 L14.3876923,7.71428571 C14.7275598,7.71428571 15.0030769,7.43798145 15.0030769,7.09714286 Z" id="Path"></path>
                </g>
            </g>
        </g>
    </g>
</svg>